<?xml version="1.0" encoding="UTF-8"?>
<svg id="Layer_2" data-name="Layer 2" xmlns="http://www.w3.org/2000/svg" viewBox="0 0 773.45 125.92">
  <defs>
    <style>
      .cls-1 {
        fill: #0c1c6c;
      }

      .cls-2 {
        fill: #1d4cce;
      }

      .cls-3 {
        fill: #112984;
      }

      .cls-4 {
        fill: #05073f;
      }

      .cls-5 {
        fill: #070c4a;
      }

      .cls-6 {
        fill: #193fb3;
      }
    </style>
  </defs>
  <g id="Layer_1-2" data-name="Layer 1">
    <g>
      <path class="cls-4" d="M0,.04h43.88l48.73,84.88L141.34.04h30.39v125.88h-30.39V51.11l-43.16,74.81h-11.33L43.88,51.11v74.81H13.49V22.88L0,.04Z"/>
      <path class="cls-4" d="M235.31,0h47.52l59.94,125.92h-31.75l-8.69-18.09h-69.52l-8.69,18.09h-31.75l52.32-109.77L235.31,0ZM244.89,82.82h45.4l-22.7-47.35-22.7,47.35h0Z"/>
      <polygon class="cls-4" points="327.82 .03 342.57 25.03 387.71 25.03 387.71 125.92 418.1 125.92 418.1 25.04 473.13 25.04 473.13 24.85 458.48 .03 327.82 .03"/>
      <polygon class="cls-4" points="479.68 .03 494.43 25.03 539.57 25.03 539.57 125.92 569.96 125.92 569.96 25.04 624.99 25.04 624.99 24.85 610.35 .03 479.68 .03"/>
      <g>
        <g>
          <path class="cls-5" d="M701.71.04v27.57h-54.16L632.78.04h68.93Z"/>
          <path class="cls-1" d="M724.92.04v27.57h-54.17L655.98.04h68.94Z"/>
          <path class="cls-3" d="M750.23.04v27.57h-54.17L681.29.04h68.94Z"/>
          <path class="cls-6" d="M765.47.04v27.57h-41.01L709.69.04h55.78Z"/>
          <path class="cls-2" d="M773.45.04v27.57h-18.29L740.39.04h33.06Z"/>
        </g>
        <g>
          <path class="cls-5" d="M701.71,49.01v27.57h-54.16l-14.77-27.57h68.93Z"/>
          <path class="cls-1" d="M724.92,49.01v27.57h-54.17l-14.77-27.57h68.94Z"/>
          <path class="cls-3" d="M750.23,49.01v27.57h-54.17l-14.77-27.57h68.94Z"/>
          <path class="cls-6" d="M765.47,49.01v27.57h-41.01l-14.77-27.57h55.78Z"/>
          <path class="cls-2" d="M773.45,49.01v27.57h-18.29l-14.77-27.57h33.06Z"/>
        </g>
        <g>
          <path class="cls-5" d="M701.71,97.98v27.57h-54.16l-14.77-27.57h68.93Z"/>
          <path class="cls-1" d="M724.92,97.98v27.57h-54.17l-14.77-27.57h68.94Z"/>
          <path class="cls-3" d="M750.23,97.98v27.57h-54.17l-14.77-27.57h68.94Z"/>
          <path class="cls-6" d="M765.47,97.98v27.57h-41.01l-14.77-27.57h55.78Z"/>
          <path class="cls-2" d="M773.45,97.98v27.57h-18.29l-14.77-27.57h33.06Z"/>
        </g>
      </g>
    </g>
  </g>
</svg>